<svg width="98" height="98" viewBox="0 0 98 98" fill="none" xmlns="http://www.w3.org/2000/svg">
<g filter="url(#filter0_d_1492_6588)">
<circle cx="49" cy="46" r="39" fill="white" fill-opacity="0.2" shape-rendering="crispEdges"/>
</g>
<g clip-path="url(#clip0_1492_6588)">
<path d="M44.5818 38.6874C44.9539 38.8601 45.1708 39.077 45.3435 39.4491C45.398 39.8537 45.4331 40.2802 45.2102 40.6393C45.0388 40.8202 45.0388 40.8202 44.7342 40.9725C44.7342 41.802 44.7342 42.6315 44.7342 43.4862C45.1159 43.4815 45.4977 43.4768 45.891 43.4719C48.9007 43.4631 51.4828 44.3212 53.6463 46.4569C54.8401 47.6488 55.6504 49.1753 56.0838 50.7987C56.1667 50.7998 56.1667 50.7998 56.2513 50.8008C56.5034 50.8049 56.7553 50.8113 57.0073 50.8177C57.0943 50.8188 57.1813 50.8199 57.271 50.821C58.0936 50.8449 58.0936 50.8449 58.4451 51.1795C58.8523 51.6198 58.7928 52.1015 58.7892 52.6763C58.7896 52.7824 58.7902 52.8886 58.7908 52.9947C58.7922 53.2823 58.7917 53.5698 58.7907 53.8574C58.7899 54.159 58.7906 54.4607 58.7911 54.7624C58.7917 55.2693 58.791 55.7761 58.7895 56.283C58.7878 56.8676 58.7884 57.4521 58.7901 58.0367C58.7914 58.5397 58.7916 59.0426 58.7908 59.5456C58.7904 59.8455 58.7903 60.1454 58.7913 60.4453C58.7922 60.7277 58.7916 61.01 58.7898 61.2924C58.7892 61.4443 58.7901 61.5963 58.7911 61.7482C58.7831 62.5977 58.5515 63.3263 57.9881 63.9764C57.1782 64.7154 56.3063 64.9384 55.2303 64.9251C55.0864 64.9251 55.0864 64.9251 54.9395 64.9252C54.6794 64.9253 54.4193 64.9235 54.1592 64.9214C53.8863 64.9195 53.6133 64.9193 53.3404 64.9189C52.8249 64.918 52.3094 64.9155 51.7939 64.9124C51.2064 64.909 50.6189 64.9073 50.0315 64.9058C48.8243 64.9026 47.6171 64.8973 46.4099 64.8905C46.3887 64.9373 46.3675 64.9841 46.3457 65.0323C46.2088 65.2853 46.056 65.3697 45.8006 65.4999C45.5461 65.5427 45.2964 65.5426 45.0388 65.5403C44.9298 65.5408 44.9298 65.5408 44.8187 65.5412C44.6655 65.5414 44.5124 65.5409 44.3592 65.5396C44.1255 65.5379 43.892 65.5396 43.6582 65.5415C43.5091 65.5413 43.3599 65.5409 43.2107 65.5403C43.1064 65.5412 43.1064 65.5412 43.0001 65.5422C42.5749 65.536 42.329 65.4788 41.992 65.1952C41.7156 64.9042 41.6637 64.6709 41.6492 64.2811C41.6637 63.8913 41.7156 63.658 41.992 63.367C42.393 63.0297 42.7097 63.0174 43.2107 63.0219C43.2834 63.0216 43.356 63.0213 43.4309 63.021C43.584 63.0208 43.7372 63.0214 43.8903 63.0226C44.124 63.0243 44.3576 63.0226 44.5913 63.0207C44.7405 63.0209 44.8897 63.0213 45.0388 63.0219C45.1084 63.0213 45.1779 63.0207 45.2495 63.02C45.6713 63.0262 45.9293 63.0759 46.2576 63.367C46.3116 63.4669 46.3631 63.5683 46.4099 63.6717C47.6283 63.6671 48.8467 63.6612 50.065 63.6538C50.6308 63.6504 51.1965 63.6474 51.7623 63.6453C52.2557 63.6436 52.7491 63.641 53.2425 63.6376C53.5035 63.6357 53.7645 63.6343 54.0255 63.6338C54.3176 63.6331 54.6096 63.631 54.9017 63.6285C55.0301 63.6287 55.0301 63.6287 55.1611 63.6288C55.7835 63.6214 56.3342 63.5431 56.8693 63.2099C57.4042 62.6253 57.5115 62.0396 57.5087 61.267C57.5099 61.1784 57.511 61.0899 57.5122 60.9987C57.5155 60.7185 57.5161 60.4385 57.5167 60.1583C57.5185 59.9673 57.5204 59.7763 57.5225 59.5852C57.5273 59.1193 57.53 58.6533 57.531 58.1874C57.234 58.1891 56.9371 58.195 56.6402 58.2016C56.5561 58.2021 56.472 58.2025 56.3854 58.203C55.8898 58.2103 55.8898 58.2103 55.4661 58.4435C55.3262 58.6444 55.3262 58.6444 55.2122 58.8738C54.7606 59.7398 53.7222 60.1811 52.8471 60.4907C52.4348 60.6159 52.0457 60.636 51.6167 60.6356C51.5504 60.6358 51.4842 60.636 51.4159 60.6362C51.194 60.6369 50.972 60.637 50.7501 60.6371C50.5909 60.6375 50.4317 60.6379 50.2726 60.6383C49.8401 60.6393 49.4076 60.6398 48.975 60.6401C48.7047 60.6403 48.4343 60.6406 48.1639 60.641C47.3173 60.642 46.4708 60.6428 45.6243 60.6431C44.6481 60.6434 43.6719 60.6447 42.6958 60.6469C41.9406 60.6486 41.1855 60.6494 40.4303 60.6495C39.9796 60.6495 39.5289 60.65 39.0782 60.6513C38.6539 60.6526 38.2296 60.6528 37.8052 60.6521C37.65 60.652 37.4947 60.6524 37.3395 60.6531C35.8005 60.6602 34.5543 60.4112 33.3845 59.3299C32.8307 58.7657 32.8307 58.7657 32.6845 58.4463C32.5607 58.24 32.5607 58.24 32.3182 58.2181C32.1807 58.2192 32.1807 58.2192 32.0405 58.2204C31.9402 58.2195 31.8399 58.2187 31.7366 58.2179C31.6305 58.2186 31.5244 58.2196 31.4184 58.2207C31.2616 58.2219 31.1049 58.2226 30.9481 58.2215C30.8052 58.2204 30.6624 58.2216 30.5195 58.2229C30.1147 58.1671 29.8936 57.9939 29.6412 57.679C29.4734 57.3783 29.4612 57.1924 29.4604 56.8496C29.4598 56.7938 29.4593 56.738 29.4587 56.6805C29.4574 56.4972 29.4583 56.314 29.4593 56.1307C29.4591 56.0027 29.4588 55.8746 29.4584 55.7466C29.458 55.4787 29.4586 55.2108 29.4601 54.9429C29.4618 54.6002 29.4608 54.2575 29.459 53.9148C29.4579 53.6506 29.4582 53.3863 29.459 53.122C29.4592 52.9957 29.459 52.8694 29.4583 52.743C29.4575 52.5662 29.4587 52.3895 29.4604 52.2126C29.4606 52.1122 29.4608 52.0117 29.4611 51.9082C29.5182 51.5074 29.7026 51.2765 29.9907 51.0022C30.3996 50.8099 30.7957 50.8233 31.2422 50.8177C31.331 50.8155 31.4197 50.8132 31.5112 50.8109C31.7294 50.8055 31.9475 50.8015 32.1658 50.7987C32.202 50.6754 32.202 50.6754 32.239 50.5496C33.0405 47.9329 34.765 45.8302 37.1773 44.534C39.2125 43.488 41.2765 43.4585 43.5154 43.4862C43.5154 42.6567 43.5154 41.8272 43.5154 40.9725C43.3646 40.8971 43.3646 40.8971 43.2107 40.8202C42.9321 40.5261 42.882 40.3108 42.8679 39.9061C42.8869 39.3964 43.0344 39.1595 43.4011 38.8111C43.7946 38.6285 44.1553 38.6299 44.5818 38.6874Z" fill="#F1F1F1"/>
<path d="M49.1344 26.4794C49.2089 26.479 49.2834 26.4787 49.3602 26.4783C49.6096 26.4774 49.8591 26.4775 50.1085 26.4776C50.2874 26.4772 50.4664 26.4767 50.6453 26.4761C51.1313 26.4747 51.6173 26.4744 52.1033 26.4743C52.458 26.4741 52.8127 26.4737 53.1673 26.4732C54.1215 26.472 55.0756 26.4714 56.0297 26.4715C56.0838 26.4715 56.138 26.4715 56.1938 26.4715C56.2751 26.4715 56.2751 26.4715 56.3581 26.4715C57.2363 26.4716 58.1144 26.4702 58.9926 26.468C59.8952 26.4658 60.7978 26.4648 61.7005 26.4649C62.2068 26.4649 62.7132 26.4645 63.2196 26.4629C63.696 26.4614 64.1724 26.4614 64.6488 26.4625C64.8234 26.4627 64.998 26.4623 65.1726 26.4614C65.4115 26.4602 65.6503 26.4609 65.8892 26.4621C65.9921 26.4609 65.9921 26.4609 66.0971 26.4597C66.7536 26.4668 67.358 26.6689 67.8447 27.121C68.2481 27.5854 68.5069 28.0679 68.5122 28.6851C68.5129 28.7567 68.5137 28.8282 68.5145 28.9019C68.5149 28.9798 68.5154 29.0578 68.5158 29.1381C68.5166 29.2206 68.5173 29.3032 68.5181 29.3882C68.5204 29.6616 68.522 29.935 68.5234 30.2084C68.5239 30.3019 68.5244 30.3955 68.5249 30.4918C68.5272 30.9362 68.529 31.3806 68.5303 31.8249C68.5317 32.2852 68.5342 32.7454 68.5386 33.2056C68.5432 33.7003 68.5455 34.195 68.5462 34.6898C68.5469 34.8778 68.5483 35.0659 68.5506 35.2539C68.5739 37.3197 68.5739 37.3197 67.7239 38.1921C67.3818 38.4998 66.9692 38.6806 66.5194 38.7634C66.3181 38.7445 66.1285 38.7192 65.9303 38.684C65.0455 38.5474 64.1679 38.4775 63.3896 38.9965C62.3365 39.8 61.4371 40.8386 60.5685 41.8327C59.741 42.7794 59.741 42.7794 59.3117 42.8386C58.9362 42.783 58.9362 42.783 58.7499 42.572C58.7031 42.3309 58.7075 42.0916 58.7089 41.8466C58.708 41.7751 58.7071 41.7037 58.7061 41.63C58.7034 41.4013 58.7027 41.1726 58.7023 40.9438C58.7011 40.7157 58.6994 40.4875 58.6969 40.2593C58.6954 40.1173 58.6946 39.9753 58.6948 39.8333C58.6917 39.3567 58.6917 39.3567 58.5214 38.9158C58.3295 38.8198 58.1982 38.8299 57.9833 38.8296C57.9017 38.8293 57.82 38.829 57.7358 38.8287C57.6458 38.8287 57.5558 38.8288 57.463 38.8288C57.3685 38.8285 57.274 38.8283 57.1766 38.828C56.9707 38.8274 56.7647 38.827 56.5588 38.8268C56.2325 38.8263 55.9062 38.825 55.5799 38.8236C55.4681 38.8231 55.3563 38.8226 55.2446 38.8222C55.1606 38.8218 55.1606 38.8218 55.0749 38.8214C54.3152 38.8182 53.5556 38.8157 52.7959 38.8148C52.2836 38.8141 51.7714 38.8124 51.2591 38.8095C50.9882 38.808 50.7174 38.807 50.4466 38.8074C50.1436 38.8078 49.8406 38.8059 49.5376 38.8038C49.4047 38.8046 49.4047 38.8046 49.269 38.8053C48.5396 38.797 47.8493 38.6548 47.2956 38.1493C47.2369 38.0981 47.1781 38.047 47.1176 37.9943C46.6506 37.4022 46.5057 36.8029 46.5143 36.0621C46.5138 35.9793 46.5133 35.8964 46.5127 35.8111C46.5114 35.5398 46.5129 35.2686 46.5145 34.9974C46.5144 34.8074 46.5143 34.6175 46.514 34.4275C46.5137 34.0305 46.5149 33.6335 46.5169 33.2364C46.5195 32.7289 46.5191 32.2214 46.5177 31.7138C46.5169 31.3219 46.5175 30.9301 46.5187 30.5382C46.5191 30.3511 46.519 30.164 46.5186 29.9769C46.5181 29.7149 46.5197 29.4531 46.5218 29.1912C46.5213 29.1148 46.5208 29.0383 46.5203 28.9596C46.5295 28.2686 46.716 27.6619 47.1944 27.1496C47.7768 26.626 48.3678 26.4768 49.1344 26.4794Z" fill="#650300"/>
<path d="M39.0958 48.4273C39.1871 48.427 39.2784 48.4267 39.3724 48.4264C39.472 48.4264 39.5715 48.4264 39.674 48.4265C39.7804 48.4262 39.8868 48.426 39.9932 48.4257C40.2817 48.425 40.5702 48.4248 40.8587 48.4248C41.0391 48.4247 41.2195 48.4246 41.3999 48.4244C42.0298 48.4237 42.6597 48.4234 43.2896 48.4234C43.876 48.4235 44.4623 48.4227 45.0486 48.4214C45.5527 48.4205 46.0568 48.42 46.5608 48.4201C46.8616 48.4201 47.1623 48.4199 47.4631 48.4191C47.7461 48.4183 48.0292 48.4183 48.3122 48.4189C48.4649 48.419 48.6176 48.4184 48.7703 48.4177C49.9675 48.4219 50.8455 48.7895 51.7183 49.6039C52.1692 50.0712 52.4053 50.6385 52.58 51.2559C52.594 51.3019 52.6079 51.348 52.6223 51.3954C52.8261 52.3876 52.5767 53.3408 52.0278 54.179C51.3873 55.0214 50.5627 55.5238 49.5332 55.75C49.1803 55.7817 48.8294 55.7813 48.4753 55.7796C48.3708 55.7799 48.2664 55.7803 48.1619 55.7808C47.8804 55.7818 47.5988 55.7814 47.3173 55.7807C47.0211 55.7801 46.725 55.7807 46.4289 55.781C45.9317 55.7815 45.4344 55.7809 44.9372 55.7798C44.3644 55.7786 43.7916 55.779 43.2188 55.7802C42.725 55.7813 42.2312 55.7814 41.7374 55.7808C41.4434 55.7805 41.1494 55.7804 40.8553 55.7812C40.5786 55.7818 40.3019 55.7814 40.0251 55.7801C39.8767 55.7796 39.7282 55.7803 39.5798 55.781C38.4446 55.7729 37.4734 55.4885 36.6315 54.6979C35.8814 53.8871 35.5364 52.9356 35.569 51.8361C35.6042 51.4438 35.685 51.0914 35.8222 50.7227C35.8417 50.6699 35.8611 50.617 35.8811 50.5626C36.2453 49.7239 37.0614 48.9845 37.8979 48.6375C38.2992 48.4867 38.6672 48.428 39.0958 48.4273Z" fill="#CDCDCD"/>
<path d="M44.582 38.6874C44.9541 38.8601 45.171 39.077 45.3438 39.4491C45.3982 39.8537 45.4333 40.2802 45.2104 40.6393C45.0391 40.8202 45.0391 40.8202 44.7344 40.9725C44.7344 41.802 44.7344 42.6315 44.7344 43.4862C45.1161 43.4815 45.4979 43.4768 45.8912 43.4719C48.9009 43.4631 51.4831 44.3212 53.6465 46.4569C54.8403 47.6488 55.6506 49.1753 56.084 50.7987C56.1669 50.7998 56.1669 50.7998 56.2515 50.8008C56.5036 50.8049 56.7556 50.8113 57.0076 50.8177C57.0946 50.8188 57.1816 50.8199 57.2712 50.821C58.0938 50.8449 58.0938 50.8449 58.4453 51.1795C58.8525 51.6198 58.793 52.1015 58.7894 52.6763C58.7898 52.7824 58.7904 52.8886 58.791 52.9947C58.7924 53.2823 58.7919 53.5698 58.7909 53.8574C58.7902 54.159 58.7909 54.4607 58.7913 54.7624C58.7919 55.2693 58.7912 55.7761 58.7897 56.283C58.7881 56.8676 58.7886 57.4521 58.7903 58.0367C58.7917 58.5397 58.7919 59.0426 58.7911 59.5456C58.7906 59.8455 58.7905 60.1454 58.7915 60.4453C58.7924 60.7277 58.7918 61.01 58.79 61.2924C58.7894 61.4443 58.7903 61.5963 58.7913 61.7482C58.7834 62.5977 58.5517 63.3263 57.9883 63.9764C57.1785 64.7154 56.3065 64.9384 55.2305 64.9251C55.0866 64.9251 55.0866 64.9251 54.9397 64.9252C54.6796 64.9253 54.4196 64.9235 54.1595 64.9214C53.8865 64.9195 53.6136 64.9193 53.3406 64.9189C52.8251 64.918 52.3096 64.9155 51.7941 64.9124C51.2066 64.909 50.6192 64.9073 50.0317 64.9058C48.8245 64.9026 47.6173 64.8973 46.4102 64.8905C46.3889 64.9373 46.3677 64.9841 46.3459 65.0323C46.2091 65.2853 46.0562 65.3697 45.8008 65.4999C45.5464 65.5427 45.2966 65.5426 45.0391 65.5403C44.9301 65.5408 44.9301 65.5408 44.8189 65.5412C44.6657 65.5414 44.5126 65.5409 44.3595 65.5396C44.1257 65.5379 43.8922 65.5396 43.6584 65.5415C43.5093 65.5413 43.3601 65.5409 43.2109 65.5403C43.1067 65.5412 43.1067 65.5412 43.0003 65.5422C42.5751 65.536 42.3293 65.4788 41.9922 65.1952C41.7158 64.9042 41.6639 64.6709 41.6494 64.2811C41.6639 63.8913 41.7158 63.658 41.9922 63.367C42.3932 63.0297 42.7099 63.0174 43.2109 63.0219C43.2836 63.0216 43.3563 63.0213 43.4311 63.021C43.5843 63.0208 43.7374 63.0214 43.8905 63.0226C44.1243 63.0243 44.3578 63.0226 44.5916 63.0207C44.7407 63.0209 44.8899 63.0213 45.0391 63.0219C45.1086 63.0213 45.1781 63.0207 45.2497 63.02C45.6715 63.0262 45.9295 63.0759 46.2578 63.367C46.3118 63.4669 46.3633 63.5683 46.4102 63.6717C47.6285 63.6671 48.8469 63.6612 50.0652 63.6538C50.631 63.6504 51.1968 63.6474 51.7625 63.6453C52.2559 63.6436 52.7493 63.641 53.2427 63.6376C53.5037 63.6357 53.7647 63.6343 54.0257 63.6338C54.3178 63.6331 54.6099 63.631 54.9019 63.6285C55.0303 63.6287 55.0303 63.6287 55.1613 63.6288C55.7838 63.6214 56.3344 63.5431 56.8695 63.2099C57.4044 62.6253 57.5117 62.0396 57.5089 61.267C57.5107 61.1342 57.5107 61.1342 57.5124 60.9987C57.5157 60.7185 57.5164 60.4385 57.517 60.1583C57.5187 59.9673 57.5207 59.7763 57.5228 59.5852C57.5275 59.1193 57.5302 58.6533 57.5312 58.1874C57.2342 58.1891 56.9374 58.195 56.6404 58.2016C56.5563 58.2021 56.4722 58.2025 56.3856 58.203C55.8901 58.2103 55.8901 58.2103 55.4663 58.4435C55.3264 58.6444 55.3264 58.6444 55.2125 58.8738C54.7608 59.7398 53.7225 60.1811 52.8473 60.4907C52.4469 60.6123 52.0719 60.6352 51.655 60.6323C51.5964 60.6322 51.5377 60.6321 51.4773 60.632C51.2911 60.6315 51.1048 60.6306 50.9186 60.6296C50.7919 60.6292 50.6652 60.6289 50.5385 60.6286C50.2288 60.6277 49.9191 60.6264 49.6094 60.6249C49.6094 60.5997 49.6094 60.5746 49.6094 60.5487C49.6914 60.5329 49.7734 60.5171 49.8578 60.5008C51.205 60.2242 52.3348 59.6237 53.1085 58.454C53.189 58.3158 53.2668 58.1762 53.3418 58.035C53.3785 57.9659 53.4152 57.8968 53.4531 57.8255C53.8298 57.0589 53.8985 56.2913 53.8952 55.4458C53.8955 55.3192 53.8955 55.3192 53.8957 55.1901C53.8958 55.0127 53.8955 54.8354 53.8949 54.6581C53.894 54.3895 53.8949 54.121 53.8958 53.8524C53.8974 52.6225 53.8974 52.6225 53.7227 51.4081C53.7119 51.3501 53.7012 51.2921 53.6902 51.2324C53.2388 48.8285 51.7514 46.6596 49.755 45.2666C47.8065 43.968 45.8098 43.6433 43.5156 43.5624C43.5156 42.7077 43.5156 41.8531 43.5156 40.9725C43.4151 40.9222 43.3145 40.872 43.2109 40.8202C42.9323 40.5261 42.8822 40.3108 42.8682 39.9061C42.8871 39.3964 43.0346 39.1595 43.4014 38.8111C43.7948 38.6285 44.1555 38.6299 44.582 38.6874Z" fill="#CBD7E2"/>
<path d="M58.6738 57.3496C58.699 57.3496 58.7241 57.3496 58.75 57.3496C58.7571 58.0118 58.7625 58.674 58.7658 59.3362C58.7674 59.6437 58.7695 59.9513 58.773 60.2588C58.7763 60.5562 58.7781 60.8535 58.7789 61.1508C58.7795 61.2637 58.7806 61.3766 58.7822 61.4895C58.7956 62.4434 58.6281 63.2383 57.9883 63.9766C57.1785 64.7155 56.3065 64.9385 55.2305 64.9252C55.0866 64.9253 55.0866 64.9253 54.9397 64.9253C54.6796 64.9254 54.4196 64.9237 54.1595 64.9215C53.8865 64.9196 53.6136 64.9194 53.3406 64.9191C52.8251 64.9181 52.3096 64.9156 51.7941 64.9126C51.2066 64.9091 50.6192 64.9075 50.0317 64.906C48.8245 64.9028 47.6173 64.8974 46.4102 64.8906C46.3889 64.9374 46.3677 64.9842 46.3459 65.0324C46.2091 65.2855 46.0562 65.3699 45.8008 65.5C45.5464 65.5428 45.2966 65.5428 45.0391 65.5405C44.9301 65.5409 44.9301 65.5409 44.8189 65.5413C44.6657 65.5416 44.5126 65.541 44.3595 65.5397C44.1257 65.5381 43.8922 65.5397 43.6584 65.5417C43.5093 65.5415 43.3601 65.5411 43.2109 65.5405C43.1414 65.5411 43.0719 65.5417 43.0003 65.5423C42.5751 65.5361 42.3293 65.4789 41.9922 65.1953C41.7158 64.9044 41.6639 64.671 41.6494 64.2812C41.6639 63.8915 41.7158 63.6581 41.9922 63.3672C42.3932 63.0298 42.7099 63.0176 43.2109 63.022C43.2836 63.0217 43.3563 63.0215 43.4311 63.0212C43.5843 63.0209 43.7374 63.0215 43.8905 63.0228C44.1243 63.0244 44.3578 63.0228 44.5916 63.0208C44.7407 63.021 44.8899 63.0214 45.0391 63.022C45.1086 63.0214 45.1781 63.0208 45.2497 63.0202C45.6715 63.0263 45.9295 63.076 46.2578 63.3672C46.3118 63.4671 46.3633 63.5685 46.4102 63.6719C47.6285 63.6673 48.8469 63.6613 50.0652 63.6539C50.631 63.6505 51.1968 63.6475 51.7625 63.6455C52.2559 63.6437 52.7493 63.6412 53.2427 63.6377C53.5037 63.6359 53.7647 63.6344 54.0257 63.634C54.3178 63.6332 54.6099 63.6311 54.9019 63.6286C55.0303 63.6288 55.0303 63.6288 55.1613 63.629C55.7838 63.6216 56.3344 63.5433 56.8695 63.2101C57.4044 62.6254 57.5117 62.0397 57.5089 61.2671C57.5107 61.1343 57.5107 61.1343 57.5124 60.9988C57.5157 60.7187 57.5164 60.4386 57.517 60.1584C57.5187 59.9674 57.5207 59.7764 57.5228 59.5854C57.5275 59.1194 57.5302 58.6535 57.5312 58.1875C57.5781 58.1737 57.6249 58.1599 57.6732 58.1457C57.7347 58.1266 57.7963 58.1075 57.8597 58.0878C57.9207 58.0693 57.9817 58.0508 58.0445 58.0318C58.3594 57.8987 58.5227 57.6518 58.6738 57.3496Z" fill="#CBD7E2"/>
<path d="M64.0059 26.4999C64.3716 26.4923 64.7373 26.4868 65.1031 26.4832C65.2272 26.4817 65.3513 26.4796 65.4754 26.4769C66.3684 26.4583 67.1525 26.4781 67.8448 27.1212C68.2481 27.5855 68.507 28.0681 68.5122 28.6853C68.513 28.7568 68.5138 28.8284 68.5146 28.902C68.515 28.98 68.5154 29.058 68.5159 29.1383C68.517 29.2621 68.517 29.2621 68.5182 29.3884C68.5204 29.6618 68.5221 29.9351 68.5235 30.2085C68.524 30.3021 68.5245 30.3956 68.525 30.492C68.5273 30.9364 68.5291 31.3807 68.5304 31.8251C68.5318 32.2854 68.5343 32.7455 68.5387 33.2058C68.5433 33.7005 68.5456 34.1952 68.5463 34.69C68.547 34.878 68.5484 35.0661 68.5507 35.2541C68.574 37.3199 68.574 37.3199 67.724 38.1923C67.0135 38.8313 66.1052 38.8031 65.2103 38.7826C65.093 38.7811 64.9758 38.7797 64.8585 38.7785C64.5742 38.7752 64.2901 38.7699 64.0059 38.7636C64.2128 38.6257 64.3131 38.5868 64.5438 38.5303C65.0704 38.3591 65.5055 37.9837 65.7947 37.5133C65.9797 37.1124 66.0713 36.72 66.0737 36.2778C66.0743 36.2092 66.0748 36.1405 66.0754 36.0698C66.0756 35.9954 66.0758 35.9211 66.076 35.8445C66.0765 35.7654 66.077 35.6863 66.0775 35.6049C66.079 35.3435 66.0799 35.0822 66.0807 34.8208C66.081 34.7314 66.0813 34.6419 66.0816 34.5497C66.0832 34.0762 66.0843 33.6027 66.085 33.1291C66.0858 32.641 66.0884 32.153 66.0915 31.6649C66.0935 31.2887 66.0941 30.9125 66.0944 30.5363C66.0947 30.3564 66.0956 30.1765 66.097 29.9966C66.0989 29.7444 66.0988 29.4921 66.0983 29.2398C66.0993 29.1662 66.1003 29.0927 66.1013 29.0168C66.0961 28.3345 65.9035 27.7295 65.4296 27.2259C65.0011 26.838 64.5737 26.6642 64.0059 26.5761C64.0059 26.551 64.0059 26.5258 64.0059 26.4999Z" fill="#E02723"/>
<path d="M31.2803 50.8557C31.3727 50.8571 31.4651 50.8584 31.5603 50.8598C31.7876 50.8634 32.0147 50.8684 32.242 50.8747C32.226 50.9431 32.21 51.0114 32.1935 51.0818C31.9827 52.0656 31.9709 53.0441 31.9711 54.047C31.9706 54.335 31.9664 54.6228 31.9621 54.9108C31.9548 55.9953 32.0518 56.8815 32.4705 57.8825C32.4987 57.9834 32.5259 58.0846 32.5467 58.1872C32.2296 58.1948 31.9126 58.2003 31.5954 58.204C31.4877 58.2055 31.38 58.2076 31.2723 58.2102C31.1169 58.2139 30.9615 58.2156 30.806 58.217C30.666 58.2194 30.666 58.2194 30.5232 58.2218C30.1154 58.1679 29.8952 57.9958 29.6412 57.6788C29.4733 57.3782 29.4612 57.1923 29.4604 56.8495C29.4598 56.7937 29.4593 56.7379 29.4587 56.6804C29.4574 56.4971 29.4583 56.3139 29.4593 56.1306C29.4591 56.0025 29.4588 55.8745 29.4584 55.7465C29.458 55.4785 29.4586 55.2107 29.4601 54.9428C29.4618 54.6001 29.4608 54.2574 29.459 53.9147C29.4579 53.6504 29.4582 53.3862 29.459 53.1219C29.4592 52.9956 29.459 52.8692 29.4583 52.7429C29.4575 52.5661 29.4587 52.3893 29.4604 52.2125C29.4606 52.112 29.4608 52.0116 29.4611 51.9081C29.5181 51.5077 29.7043 51.2773 29.9883 50.9997C30.4116 50.8061 30.8213 50.8428 31.2803 50.8557Z" fill="#650300"/>
<path d="M56.0078 50.875C56.3284 50.8661 56.6489 50.8607 56.9695 50.856C57.1054 50.8521 57.1054 50.8521 57.2441 50.8482C58.0964 50.8387 58.0964 50.8387 58.4453 51.1797C58.7228 51.5308 58.7883 51.7606 58.7894 52.2058C58.79 52.2608 58.7905 52.3159 58.791 52.3726C58.7924 52.5534 58.7915 52.7342 58.7905 52.915C58.7907 53.0413 58.791 53.1677 58.7913 53.294C58.7918 53.5583 58.7911 53.8226 58.7897 54.0869C58.788 54.425 58.789 54.7631 58.7908 55.1012C58.7919 55.3619 58.7916 55.6226 58.7908 55.8834C58.7906 56.008 58.7908 56.1326 58.7915 56.2573C58.7923 56.4317 58.7911 56.6061 58.7894 56.7806C58.7891 56.9292 58.7891 56.9292 58.7887 57.0809C58.7305 57.485 58.5468 57.7173 58.2454 57.9828C57.9473 58.1946 57.7798 58.1965 57.414 58.195C57.2653 58.1946 57.2653 58.1946 57.1135 58.1942C57.0084 58.1936 56.9032 58.1929 56.7981 58.1923C56.6924 58.1919 56.5866 58.1915 56.4809 58.1912C56.2216 58.1903 55.9624 58.1891 55.7031 58.1875C55.7345 58.0964 55.766 58.0053 55.7983 57.9114C55.8189 57.8473 55.8395 57.7832 55.8607 57.7172C55.9077 57.5746 55.9586 57.4332 56.0135 57.2935C56.3213 56.4181 56.2796 55.5209 56.2719 54.6038C56.2697 54.3185 56.2703 54.0333 56.2713 53.748C56.2703 52.7676 56.2325 51.8314 56.0078 50.875Z" fill="#650300"/>
<path d="M50.5178 32.0304C50.58 32.03 50.6422 32.0295 50.7063 32.029C50.9154 32.0278 51.1245 32.0281 51.3336 32.0285C51.4833 32.0279 51.6329 32.0273 51.7825 32.0265C52.1895 32.0248 52.5965 32.0246 53.0035 32.0248C53.3429 32.0248 53.6823 32.0241 54.0217 32.0235C54.8223 32.022 55.6228 32.0218 56.4234 32.0223C57.25 32.0228 58.0767 32.0211 58.9033 32.0183C59.6124 32.0159 60.3214 32.0151 61.0305 32.0154C61.4543 32.0155 61.8781 32.0151 62.3019 32.0132C62.7003 32.0115 63.0987 32.0117 63.4972 32.0132C63.6436 32.0135 63.79 32.0131 63.9364 32.012C64.136 32.0106 64.3354 32.0116 64.535 32.0131C64.5932 32.0122 64.6514 32.0112 64.7114 32.0103C65.0027 32.0151 65.1235 32.0365 65.337 32.2417C65.4674 32.4658 65.4987 32.5681 65.4531 32.8222C65.3159 33.0575 65.2593 33.1153 64.9961 33.2031C64.7972 33.211 64.6004 33.2147 64.4015 33.2148C64.3097 33.2153 64.3097 33.2153 64.216 33.2158C64.0103 33.2168 63.8045 33.2173 63.5987 33.2178C63.4514 33.2184 63.3042 33.219 63.1569 33.2196C62.6728 33.2216 62.1887 33.2228 61.7046 33.2239C61.5381 33.2243 61.3716 33.2247 61.205 33.2251C60.5125 33.2268 59.82 33.2282 59.1275 33.229C58.1343 33.2303 57.1411 33.2328 56.1479 33.2372C55.4499 33.2401 54.7519 33.2416 54.0538 33.242C53.6367 33.2423 53.2196 33.2432 52.8025 33.2457C52.4103 33.2479 52.018 33.2484 51.6258 33.2475C51.4817 33.2475 51.3377 33.2482 51.1936 33.2495C50.9971 33.2512 50.8007 33.2506 50.6042 33.2494C50.5471 33.2504 50.4899 33.2515 50.4311 33.2526C50.1335 33.248 50.0001 33.2106 49.7614 33.027C49.6094 32.8222 49.6094 32.8222 49.6094 32.5461C49.7631 32.0272 50.0155 32.0269 50.5178 32.0304Z" fill="#F1F1F1"/>
<path d="M47.0957 48.4377C47.4317 48.4339 47.7676 48.4312 48.1036 48.4293C48.2177 48.4286 48.3318 48.4275 48.4458 48.4262C48.6107 48.4243 48.7756 48.4235 48.9405 48.4228C49.0394 48.422 49.1383 48.4212 49.2403 48.4204C50.2839 48.482 51.1364 49.0009 51.849 49.7395C52.22 50.183 52.4242 50.7051 52.5801 51.2561C52.594 51.3021 52.608 51.3482 52.6223 51.3956C52.8261 52.3878 52.5768 53.341 52.0278 54.1792C51.5548 54.8013 51.0114 55.2156 50.2949 55.5217C50.2384 55.5481 50.1819 55.5745 50.1237 55.6017C49.8793 55.686 49.6852 55.6914 49.427 55.6889C49.3354 55.6884 49.2439 55.6879 49.1495 55.6874C49.0072 55.6855 49.0072 55.6855 48.8619 55.6836C48.7656 55.6829 48.6692 55.6822 48.5699 55.6815C48.3324 55.6797 48.0949 55.6772 47.8574 55.674C47.9336 55.4455 47.9336 55.4455 48.0809 55.364C48.1438 55.3375 48.2068 55.311 48.2716 55.2837C49.149 54.8632 49.7312 54.1664 50.0521 53.2556C50.3443 52.3278 50.291 51.387 49.9141 50.4943C49.779 50.2502 49.6267 50.0298 49.457 49.8088C49.413 49.7428 49.3691 49.6768 49.3237 49.6088C48.7357 48.9881 47.9457 48.6058 47.0957 48.5139C47.0957 48.4887 47.0957 48.4636 47.0957 48.4377Z" fill="#939393"/>
<path d="M50.3328 29.5931C50.4198 29.5923 50.5069 29.5914 50.5965 29.5905C50.6921 29.5907 50.7877 29.591 50.8861 29.5912C50.9877 29.5906 51.0893 29.59 51.1909 29.5892C51.467 29.5875 51.743 29.5873 52.0191 29.5875C52.2494 29.5875 52.4798 29.5868 52.7102 29.5862C53.2536 29.5847 53.7971 29.5845 54.3406 29.585C54.9014 29.5855 55.4622 29.5838 56.023 29.5809C56.5043 29.5786 56.9857 29.5777 57.4671 29.578C57.7546 29.5782 58.0421 29.5778 58.3297 29.5759C58.6001 29.5742 58.8705 29.5744 59.1409 29.5759C59.2875 29.5763 59.4341 29.5748 59.5806 29.5732C59.7115 29.5745 59.7115 29.5745 59.8451 29.5758C59.9209 29.5758 59.9967 29.5757 60.0748 29.5757C60.3504 29.6416 60.432 29.7674 60.5781 30.004C60.5662 30.3033 60.5167 30.4389 60.3496 30.6896C60.1163 30.7674 59.956 30.7761 59.7116 30.7775C59.5841 30.7785 59.5841 30.7785 59.454 30.7795C59.3607 30.7798 59.2674 30.7801 59.1712 30.7804C59.0239 30.7814 59.0239 30.7814 58.8735 30.7823C58.5477 30.7843 58.2219 30.7855 57.896 30.7866C57.7838 30.787 57.6716 30.7874 57.5594 30.7878C57.0927 30.7894 56.626 30.7909 56.1594 30.7917C55.4906 30.793 54.8219 30.7955 54.1532 30.7998C53.6829 30.8028 53.2126 30.8043 52.7423 30.8047C52.4614 30.805 52.1806 30.8059 51.8997 30.8083C51.5864 30.8111 51.2732 30.8108 50.9598 30.8102C50.8203 30.8121 50.8203 30.8121 50.678 30.814C49.9782 30.8088 49.9782 30.8088 49.7392 30.5898C49.6094 30.3849 49.6094 30.3849 49.6094 30.1088C49.738 29.6748 49.8881 29.5948 50.3328 29.5931Z" fill="#F1F1F1"/>
<path d="M43.2109 63.0221C43.2836 63.0218 43.3563 63.0215 43.4311 63.0212C43.5843 63.021 43.7374 63.0216 43.8905 63.0229C44.1243 63.0245 44.3578 63.0229 44.5916 63.0209C44.7407 63.0211 44.8899 63.0215 45.0391 63.0221C45.1433 63.0212 45.1433 63.0212 45.2497 63.0203C45.6734 63.0265 45.9237 63.0812 46.2578 63.3673C46.5459 63.7845 46.6076 64.0855 46.5625 64.586C46.4385 64.9841 46.3 65.1926 45.9531 65.4239C45.7787 65.5112 45.6771 65.5111 45.4831 65.5136C45.3847 65.515 45.3847 65.515 45.2842 65.5165C45.2132 65.5171 45.1421 65.5177 45.0688 65.5182C44.9957 65.5189 44.9226 65.5195 44.8473 65.5201C44.6924 65.5212 44.5374 65.522 44.3825 65.5226C44.146 65.5239 43.9097 65.5272 43.6733 65.5306C43.5228 65.5314 43.3722 65.532 43.2216 65.5325C43.1159 65.5345 43.1159 65.5345 43.0081 65.5366C42.5787 65.5351 42.3322 65.4834 41.9922 65.1954C41.7158 64.9045 41.6639 64.6711 41.6494 64.2813C41.6639 63.8916 41.7158 63.6582 41.9922 63.3673C42.3932 63.0299 42.7099 63.0177 43.2109 63.0221Z" fill="#3B4854"/>
<path d="M50.7264 34.3935C50.801 34.3932 50.8756 34.393 50.9525 34.3927C51.1991 34.3921 51.4457 34.3931 51.6924 34.3942C51.8637 34.3942 52.0351 34.3942 52.2064 34.3941C52.5655 34.3941 52.9246 34.3949 53.2836 34.3963C53.7442 34.398 54.2047 34.398 54.6653 34.3975C55.0191 34.3973 55.3729 34.3978 55.7266 34.3985C55.8965 34.3988 56.0663 34.3989 56.2361 34.3988C56.4734 34.3988 56.7106 34.3997 56.9478 34.401C57.0182 34.4008 57.0886 34.4006 57.161 34.4004C57.2581 34.4012 57.2581 34.4012 57.3571 34.402C57.4132 34.4022 57.4693 34.4023 57.527 34.4025C57.7123 34.4254 57.8308 34.4747 57.9885 34.5742C58.1408 34.8027 58.1408 34.8027 58.1266 35.0693C58.0644 35.3373 58.0456 35.4051 57.8361 35.5645C57.6852 35.5936 57.6852 35.5936 57.51 35.5945C57.4102 35.5958 57.4102 35.5958 57.3084 35.5971C57.1992 35.5968 57.1992 35.5968 57.0878 35.5964C57.011 35.5971 56.9342 35.5977 56.8551 35.5984C56.6006 35.6002 56.3461 35.6003 56.0916 35.6002C55.9151 35.6007 55.7385 35.6013 55.562 35.6019C55.1917 35.6029 54.8214 35.6031 54.4511 35.6026C53.976 35.6022 53.5011 35.6045 53.0261 35.6076C52.6614 35.6095 52.2967 35.6098 51.932 35.6095C51.7569 35.6096 51.5817 35.6104 51.4066 35.6117C51.1618 35.6134 50.9172 35.6127 50.6724 35.6113C50.5998 35.6123 50.5272 35.6133 50.4524 35.6144C49.9638 35.6081 49.9638 35.6081 49.7145 35.3884C49.5704 35.1071 49.597 34.95 49.6858 34.6504C49.9616 34.3312 50.3378 34.3903 50.7264 34.3935Z" fill="#F1F1F1"/>
<path d="M63.625 38.7636C63.2576 39.2057 62.863 39.6128 62.4562 40.0186C62.3886 40.0863 62.321 40.154 62.2514 40.2237C62.0729 40.4022 61.8942 40.5806 61.7155 40.7589C61.5703 40.904 61.4253 41.0493 61.2803 41.1946C61.106 41.3693 60.9313 41.5438 60.7566 41.7182C60.6599 41.8152 60.6599 41.8152 60.5611 41.9142C59.6845 42.7874 59.6845 42.7874 59.3118 42.8388C59.032 42.7973 58.9414 42.7756 58.75 42.5722C58.6265 42.0647 58.6019 41.5076 58.8339 41.0274C59.1062 40.6003 59.4546 40.2481 59.8164 39.8966C59.8702 39.8424 59.924 39.7881 59.9794 39.7321C61.104 38.6159 62.0989 38.4446 63.625 38.7636Z" fill="#E02723"/>
<path d="M42.0221 57.5647C42.097 57.5639 42.097 57.5639 42.1734 57.5632C42.3389 57.5617 42.5044 57.5608 42.6699 57.56C42.7264 57.5597 42.783 57.5594 42.8412 57.5591C43.1405 57.5575 43.4397 57.5564 43.7389 57.5557C44.0479 57.5548 44.3567 57.5522 44.6656 57.5492C44.9033 57.5472 45.141 57.5466 45.3786 57.5463C45.4925 57.5459 45.6063 57.545 45.7202 57.5436C45.8797 57.5418 46.0392 57.5418 46.1988 57.5424C46.3348 57.5417 46.3348 57.5417 46.4736 57.541C46.7649 57.5858 46.8898 57.6757 47.0959 57.8829C47.1768 58.1066 47.1768 58.1066 47.1721 58.3399C47.0372 58.5491 46.9388 58.6851 46.7151 58.7969C46.553 58.8055 46.3906 58.8091 46.2283 58.8104C46.1784 58.8109 46.1285 58.8114 46.077 58.8119C45.9115 58.8134 45.746 58.8143 45.5805 58.8151C45.4957 58.8155 45.4957 58.8155 45.4092 58.816C45.11 58.8176 44.8107 58.8187 44.5115 58.8194C44.2026 58.8202 43.8937 58.8229 43.5848 58.8259C43.3471 58.8279 43.1095 58.8285 42.8718 58.8288C42.7579 58.8292 42.6441 58.83 42.5302 58.8315C42.3707 58.8333 42.2112 58.8332 42.0517 58.8327C41.9156 58.8334 41.9156 58.8334 41.7768 58.8341C41.4855 58.7893 41.3606 58.6994 41.1545 58.4922C41.0736 58.2685 41.0736 58.2685 41.0783 58.0352C41.3538 57.6078 41.5314 57.5688 42.0221 57.5647Z" fill="#650300"/>
<path d="M43.5013 63.1484C43.8251 63.3388 44.031 63.5602 44.2012 63.9006C44.2426 64.278 44.2442 64.5763 44.0726 64.9194C43.7534 65.2818 43.5103 65.47 43.0306 65.5183C42.5921 65.5313 42.3314 65.5024 41.9922 65.1955C41.7158 64.9046 41.6639 64.6712 41.6494 64.2814C41.6639 63.8916 41.7158 63.6583 41.9922 63.3674C42.4508 62.9524 42.9359 62.9815 43.5013 63.1484Z" fill="#606C78"/>
<path d="M44.5822 38.6874C44.9543 38.8601 45.1712 39.077 45.3439 39.4491C45.399 39.8578 45.4354 40.2816 45.2011 40.6393C44.9141 40.96 44.7027 41.0961 44.2635 41.1424C43.8807 41.156 43.6133 41.1162 43.2873 40.8963C42.9155 40.4843 42.8794 40.2216 42.8853 39.6764C42.9232 39.2685 43.116 39.0824 43.4015 38.8111C43.795 38.6285 44.1557 38.6299 44.5822 38.6874Z" fill="#650300"/>
<path d="M48.0858 50.8752C48.5181 51.0248 48.7953 51.3039 48.9999 51.7131C49.0653 52.1636 49.006 52.5029 48.7422 52.8762C48.4599 53.1783 48.1444 53.291 47.743 53.3555C47.3378 53.2904 47.0342 53.1205 46.7608 52.8119C46.5342 52.4683 46.4897 52.1156 46.5624 51.7131C46.9046 51.0413 47.3659 50.8095 48.0858 50.8752Z" fill="#650300"/>
<path d="M40.7733 50.8752C41.2056 51.0248 41.4828 51.3039 41.6874 51.7131C41.7528 52.1636 41.6935 52.5029 41.4297 52.8762C41.1474 53.1783 40.8319 53.291 40.4305 53.3555C40.0253 53.2904 39.7217 53.1205 39.4483 52.8119C39.2217 52.4683 39.1772 52.1156 39.2499 51.7131C39.5921 51.0413 40.0534 50.8095 40.7733 50.8752Z" fill="#650300"/>
<path d="M47.9336 55.5976C48.0574 55.6088 48.1816 55.6164 48.3058 55.6217C48.3773 55.6248 48.4487 55.628 48.5223 55.6313C48.5967 55.6343 48.671 55.6373 48.7477 55.6404C48.8606 55.6453 48.8606 55.6453 48.9757 55.6504C49.1616 55.6584 49.3474 55.6662 49.5332 55.6737C49.5332 55.6989 49.5332 55.724 49.5332 55.7499C48.754 55.7499 47.9747 55.7499 47.1719 55.7499C47.4636 55.5554 47.5971 55.4854 47.9336 55.5976Z" fill="#515D68"/>
</g>
<defs>
<filter id="filter0_d_1492_6588" x="0.487804" y="0.341463" width="97.0244" height="97.0244" filterUnits="userSpaceOnUse" color-interpolation-filters="sRGB">
<feFlood flood-opacity="0" result="BackgroundImageFix"/>
<feColorMatrix in="SourceAlpha" type="matrix" values="0 0 0 0 0 0 0 0 0 0 0 0 0 0 0 0 0 0 127 0" result="hardAlpha"/>
<feOffset dy="2.85366"/>
<feGaussianBlur stdDeviation="4.7561"/>
<feComposite in2="hardAlpha" operator="out"/>
<feColorMatrix type="matrix" values="0 0 0 0 0 0 0 0 0 0 0 0 0 0 0 0 0 0 0.12 0"/>
<feBlend mode="normal" in2="BackgroundImageFix" result="effect1_dropShadow_1492_6588"/>
<feBlend mode="normal" in="SourceGraphic" in2="effect1_dropShadow_1492_6588" result="shape"/>
</filter>
<clipPath id="clip0_1492_6588">
<rect width="39" height="39" fill="white" transform="translate(29.5 26.5)"/>
</clipPath>
</defs>
</svg>
